HIERARCHY
ROOT hip
{
  OFFSET 0 90.174 2.4664
  CHANNELS 6 Xposition Yposition Zposition Zrotation Xrotation Yrotation
  JOINT abdomen
  {
    OFFSET 0 -1.186 -1.5018
    CHANNELS 6 Xposition Yposition Zposition Zrotation Xrotation Yrotation
    JOINT abdomen2
    {
      OFFSET 0 9.964 0.2134
      CHANNELS 6 Xposition Yposition Zposition Zrotation Xrotation Yrotation
      JOINT chest
      {
        OFFSET 0 13.134 -3.2573
        CHANNELS 6 Xposition Yposition Zposition Zrotation Xrotation Yrotation
        JOINT neck
        {
          OFFSET 0 20.686 -1.6905
          CHANNELS 6 Xposition Yposition Zposition Zrotation Xrotation Yrotation
          JOINT head
          {
            OFFSET 0 7.238 -0.1237
            CHANNELS 6 Xposition Yposition Zposition Zrotation Xrotation Yrotation
            End Site
            {
              OFFSET 0 0 0
            }
          }
        }
        JOINT lCollar
        {
          OFFSET 1.7069 20.075 5.0056
          CHANNELS 6 Xposition Yposition Zposition Zrotation Xrotation Yrotation
          JOINT lShldr
          {
            OFFSET 13.6458 -0.047 -4.849
            CHANNELS 6 Xposition Yposition Zposition Zrotation Xrotation Yrotation
            JOINT lForeArm
            {
              OFFSET 28.3255 -0.9759 2.2888
              CHANNELS 6 Xposition Yposition Zposition Zrotation Xrotation Yrotation
              JOINT lHand
              {
                OFFSET 22.1583 -0.53 10.8316
                CHANNELS 6 Xposition Yposition Zposition Zrotation Xrotation Yrotation
                JOINT lThumb1
                {
                  OFFSET 0.786 0.112 2.5817
                  CHANNELS 6 Xposition Yposition Zposition Zrotation Xrotation Yrotation
                  JOINT lThumb2
                  {
                    OFFSET 0.3601 -0.878 4.2331
                    CHANNELS 6 Xposition Yposition Zposition Zrotation Xrotation Yrotation
                    JOINT lThumb2_End
                    {
                      OFFSET 1.8127 -1.216 2.2227
                      CHANNELS 6 Xposition Yposition Zposition Zrotation Xrotation Yrotation
                      End Site
                      {
                        OFFSET 0.0181 -0.0122 0.0222
                      }
                    }
                  }
                }
                JOINT lCarpal1
                {
                  OFFSET 0.9571 1.114 1.7695
                  CHANNELS 6 Xposition Yposition Zposition Zrotation Xrotation Yrotation
                  JOINT lIndex1
                  {
                    OFFSET 4.1246 0.487 4.1451
                    CHANNELS 6 Xposition Yposition Zposition Zrotation Xrotation Yrotation
                    JOINT lIndex2
                    {
                      OFFSET 3.4052 -1.454 2.7682
                      CHANNELS 6 Xposition Yposition Zposition Zrotation Xrotation Yrotation
                      JOINT lIndex2_End
                      {
                        OFFSET 1.4531 -1.795 1.2713
                        CHANNELS 6 Xposition Yposition Zposition Zrotation Xrotation Yrotation
                        End Site
                        {
                          OFFSET 0.0145 -0.0179 0.0127
                        }
                      }
                    }
                  }
                  JOINT lMid1
                  {
                    OFFSET 5.6954 0.21 2.1184
                    CHANNELS 6 Xposition Yposition Zposition Zrotation Xrotation Yrotation
                    JOINT lMid2
                    {
                      OFFSET 3.9766 -1.54 2.3863
                      CHANNELS 6 Xposition Yposition Zposition Zrotation Xrotation Yrotation
                      JOINT lMid2_End
                      {
                        OFFSET 1.4042 -1.926 1.125
                        CHANNELS 6 Xposition Yposition Zposition Zrotation Xrotation Yrotation
                        End Site
                        {
                          OFFSET 0.014 -0.0193 0.0113
                        }
                      }
                    }
                  }
                }
                JOINT lCarpal2
                {
                  OFFSET 2.0956 0.66 -0.3894
                  CHANNELS 6 Xposition Yposition Zposition Zrotation Xrotation Yrotation
                  JOINT lRing1
                  {
                    OFFSET 5.0395 -0.09 2.4971
                    CHANNELS 6 Xposition Yposition Zposition Zrotation Xrotation Yrotation
                    JOINT lRing2
                    {
                      OFFSET 3.7921 -1.552 1.4806
                      CHANNELS 6 Xposition Yposition Zposition Zrotation Xrotation Yrotation
                      JOINT lRing2_End
                      {
                        OFFSET 1.4655 -1.808 0.9609
                        CHANNELS 6 Xposition Yposition Zposition Zrotation Xrotation Yrotation
                        End Site
                        {
                          OFFSET 0.0147 -0.0181 0.0096
                        }
                      }
                    }
                  }
                  JOINT lPinky1
                  {
                    OFFSET 4.9141 -1.269 0.3591
                    CHANNELS 6 Xposition Yposition Zposition Zrotation Xrotation Yrotation
                    JOINT lPinky2
                    {
                      OFFSET 3.1477 -1.685 0.8462
                      CHANNELS 6 Xposition Yposition Zposition Zrotation Xrotation Yrotation
                      JOINT lPinky2_End
                      {
                        OFFSET 0.8055 -1.585 0.7955
                        CHANNELS 6 Xposition Yposition Zposition Zrotation Xrotation Yrotation
                        End Site
                        {
                          OFFSET 0.0081 -0.0158 0.008
                        }
                      }
                    }
                  }
                }
              }
            }
          }
        }
        JOINT rCollar
        {
          OFFSET -1.7069 20.075 5.0056
          CHANNELS 6 Xposition Yposition Zposition Zrotation Xrotation Yrotation
          JOINT rShldr
          {
            OFFSET -13.6458 -0.047 -4.849
            CHANNELS 6 Xposition Yposition Zposition Zrotation Xrotation Yrotation
            JOINT rForeArm
            {
              OFFSET -28.3255 -0.9759 2.2888
              CHANNELS 6 Xposition Yposition Zposition Zrotation Xrotation Yrotation
              JOINT rHand
              {
                OFFSET -22.1583 -0.53 10.8316
                CHANNELS 6 Xposition Yposition Zposition Zrotation Xrotation Yrotation
                JOINT rThumb1
                {
                  OFFSET -0.786 0.112 2.5817
                  CHANNELS 6 Xposition Yposition Zposition Zrotation Xrotation Yrotation
                  JOINT rThumb2
                  {
                    OFFSET -0.3601 -0.878 4.2331
                    CHANNELS 6 Xposition Yposition Zposition Zrotation Xrotation Yrotation
                    JOINT rThumb2_End
                    {
                      OFFSET -1.8127 -1.216 2.2227
                      CHANNELS 6 Xposition Yposition Zposition Zrotation Xrotation Yrotation
                      End Site
                      {
                        OFFSET -0.0181 -0.0122 0.0222
                      }
                    }
                  }
                }
                JOINT rCarpal1
                {
                  OFFSET -0.9571 1.114 1.7695
                  CHANNELS 6 Xposition Yposition Zposition Zrotation Xrotation Yrotation
                  JOINT rIndex1
                  {
                    OFFSET -4.1246 0.487 4.1451
                    CHANNELS 6 Xposition Yposition Zposition Zrotation Xrotation Yrotation
                    JOINT rIndex2
                    {
                      OFFSET -3.4052 -1.454 2.7682
                      CHANNELS 6 Xposition Yposition Zposition Zrotation Xrotation Yrotation
                      JOINT rIndex2_End
                      {
                        OFFSET -1.4531 -1.795 1.2713
                        CHANNELS 6 Xposition Yposition Zposition Zrotation Xrotation Yrotation
                        End Site
                        {
                          OFFSET -0.0145 -0.018 0.0127
                        }
                      }
                    }
                  }
                  JOINT rMid1
                  {
                    OFFSET -5.6954 0.21 2.1184
                    CHANNELS 6 Xposition Yposition Zposition Zrotation Xrotation Yrotation
                    JOINT rMid2
                    {
                      OFFSET -3.9766 -1.54 2.3863
                      CHANNELS 6 Xposition Yposition Zposition Zrotation Xrotation Yrotation
                      JOINT rMid2_End
                      {
                        OFFSET -1.4042 -1.926 1.125
                        CHANNELS 6 Xposition Yposition Zposition Zrotation Xrotation Yrotation
                        End Site
                        {
                          OFFSET -0.014 -0.0193 0.0113
                        }
                      }
                    }
                  }
                }
                JOINT rCarpal2
                {
                  OFFSET -2.0956 0.66 -0.3894
                  CHANNELS 6 Xposition Yposition Zposition Zrotation Xrotation Yrotation
                  JOINT rRing1
                  {
                    OFFSET -5.0395 -0.09 2.4971
                    CHANNELS 6 Xposition Yposition Zposition Zrotation Xrotation Yrotation
                    JOINT rRing2
                    {
                      OFFSET -3.7921 -1.552 1.4806
                      CHANNELS 6 Xposition Yposition Zposition Zrotation Xrotation Yrotation
                      JOINT rRing2_End
                      {
                        OFFSET -1.4655 -1.808 0.9609
                        CHANNELS 6 Xposition Yposition Zposition Zrotation Xrotation Yrotation
                        End Site
                        {
                          OFFSET -0.0147 -0.0181 0.0096
                        }
                      }
                    }
                  }
                  JOINT rPinky1
                  {
                    OFFSET -4.9141 -1.269 0.3592
                    CHANNELS 6 Xposition Yposition Zposition Zrotation Xrotation Yrotation
                    JOINT rPinky2
                    {
                      OFFSET -3.1477 -1.685 0.8462
                      CHANNELS 6 Xposition Yposition Zposition Zrotation Xrotation Yrotation
                      JOINT rPinky2_End
                      {
                        OFFSET -0.8055 -1.585 0.7955
                        CHANNELS 6 Xposition Yposition Zposition Zrotation Xrotation Yrotation
                        End Site
                        {
                          OFFSET -0.0081 -0.0158 0.008
                        }
                      }
                    }
                  }
                }
              }
            }
          }
        }
      }
    }
  }
  JOINT lThigh
  {
    OFFSET 8.367 -8.2066 0.5982
    CHANNELS 6 Xposition Yposition Zposition Zrotation Xrotation Yrotation
    JOINT lShin
    {
      OFFSET 2.1923 -43.463 -0.4932
      CHANNELS 6 Xposition Yposition Zposition Zrotation Xrotation Yrotation
      JOINT lFoot
      {
        OFFSET 0.7333 -45.8593 -2.6451
        CHANNELS 6 Xposition Yposition Zposition Zrotation Xrotation Yrotation
        End Site
        {
          OFFSET 2.6618 -4.2699 12.3931
        }
      }
    }
  }
  JOINT rThigh
  {
    OFFSET -8.367 -8.2066 0.5982
    CHANNELS 6 Xposition Yposition Zposition Zrotation Xrotation Yrotation
    JOINT rShin
    {
      OFFSET -2.1923 -43.463 -0.4931
      CHANNELS 6 Xposition Yposition Zposition Zrotation Xrotation Yrotation
      JOINT rFoot
      {
        OFFSET -0.7333 -45.8593 -2.6451
        CHANNELS 6 Xposition Yposition Zposition Zrotation Xrotation Yrotation
        End Site
        {
          OFFSET -2.6618 -4.2699 12.3931
        }
      }
    }
  }
}
MOTION
Frames:	4
Frame Time:	0.0333333
0 90.174 2.4664 0 0 -0 0 -1.186 -1.5018 0 0 -0 0 9.964 0.2134 0 0 -0 0 13.134 -3.2573 0 0 -0 0 20.686 -1.6905 0 0 -0 0 7.238 -0.1237 0 0 -0 1.7069 20.075 5.0056 0 0 -0 13.6458 -0.047 -4.849 1.66051 0.0835086 5.75766 28.3255 -0.9759 2.2888 -0.0175111 0.895433 15.7816 22.1583 -0.53 10.8316 7.95139e-016 -1.98785e-016 -0 0.786 0.112 2.5817 5.46658e-016 -3.97569e-016 -0 0.3601 -0.878 4.2331 5.96354e-016 0 -0 1.8127 -1.216 2.2227 3.97569e-016 1.98785e-016 9.54166e-015 0.9571 1.114 1.7695 1.49089e-016 -3.97569e-016 -0 4.1246 0.487 4.1451 6.4605e-016 0 3.18055e-015 3.4052 -1.454 2.7682 5.96354e-016 0 3.18055e-015 1.4531 -1.795 1.2713 8.94531e-016 -1.98785e-016 6.36111e-015 5.6954 0.21 2.1184 6.4605e-016 0 3.18055e-015 3.9766 -1.54 2.3863 5.96354e-016 0 3.18055e-015 1.4042 -1.926 1.125 8.94531e-016 -1.98785e-016 6.36111e-015 2.0956 0.66 -0.3894 1.49089e-016 -3.97569e-016 -0 5.0395 -0.09 2.4971 6.4605e-016 0 3.18055e-015 3.7921 -1.552 1.4806 5.96354e-016 0 3.18055e-015 1.4655 -1.808 0.9609 8.94531e-016 -1.98785e-016 6.36111e-015 4.9141 -1.269 0.3591 6.4605e-016 0 3.18055e-015 3.1477 -1.685 0.8462 5.96354e-016 0 3.18055e-015 0.8055 -1.585 0.7955 8.94531e-016 -1.98785e-016 6.36111e-015 -1.7069 20.075 5.0056 0 0 -0 -13.6458 -0.047 -4.849 -1.4496 0.0636048 -5.0245 -28.3255 -0.9759 2.2888 -1.74811 1.20616 -16.8394 -22.1583 -0.53 10.8316 -1.19271e-015 1.98785e-016 -3.18055e-015 -0.786 0.112 2.5817 -3.97569e-016 1.98785e-016 -3.18055e-015 -0.3601 -0.878 4.2331 -2.98177e-016 1.98785e-016 -3.18055e-015 -1.8127 -1.216 2.2227 -2.98177e-016 3.97569e-016 -0 -0.9571 1.114 1.7695 4.96962e-016 0 -6.36111e-015 -4.1246 0.487 4.1451 -9.93923e-017 3.97569e-016 -0 -3.4052 -1.454 2.7682 -8.94531e-016 5.96354e-016 -0 -1.4531 -1.795 1.2713 -3.97569e-016 3.97569e-016 -0 -5.6954 0.21 2.1184 -9.93923e-017 3.97569e-016 -0 -3.9766 -1.54 2.3863 -8.94531e-016 5.96354e-016 -0 -1.4042 -1.926 1.125 -3.97569e-016 3.97569e-016 -0 -2.0956 0.66 -0.3894 4.96962e-016 0 -6.36111e-015 -5.0395 -0.09 2.4971 -9.93923e-017 3.97569e-016 -0 -3.7921 -1.552 1.4806 -8.94531e-016 5.96354e-016 -0 -1.4655 -1.808 0.9609 -3.97569e-016 3.97569e-016 -0 -4.9141 -1.269 0.3592 -9.93923e-017 3.97569e-016 -0 -3.1477 -1.685 0.8462 -8.94531e-016 5.96354e-016 -0 -0.8055 -1.585 0.7955 -3.97569e-016 3.97569e-016 -0 8.367 -8.2066 0.5982 -4.66115 -1.03232 0.120763 2.1923 -43.463 -0.4932 0.00990601 1.55097 0.177175 0.7333 -45.8593 -2.6451 4.65196 -0.54114 -0.255042 -8.367 -8.2066 0.5982 4.66115 -1.03222 -0.120763 -2.1923 -43.463 -0.4931 -0.00990459 1.5509 -0.177176 -0.7333 -45.8593 -2.6451 -4.65196 -0.541171 0.255041 
42.3108 75.4634 65.3447 180 75.004 -180 0 -1.186 -1.5018 -0.373439 6.27625 -0.886839 0 9.964 0.2134 -0.654368 12.5574 -1.74811 1.42109e-014 13.134 -3.2573 -0.654368 12.5575 -1.74811 7.10543e-015 20.686 -1.6905 1.59653e-006 0.281489 1.30484e-006 -7.10543e-015 7.238 -0.1237 2.4878e-007 0.106662 5.17644e-007 1.7069 20.075 5.0056 -59.8515 34.4114 4.144 13.6458 -0.047 -4.849 -15.0182 56.5336 -14.3532 28.3255 -0.9759 2.2888 14.1665 -4.16413 -13.5373 22.1583 -0.53 10.8316 38.9614 -22.6931 1.55502 0.786 0.112 2.5817 -3.37599e-006 1.40561e-006 -3.93001e-006 0.3601 -0.878 4.2331 1.59028e-015 -4.53478e-015 -3.97569e-016 1.8127 -1.216 2.2227 -4.65896e-006 -1.03039e-007 1.25182e-006 0.9571 1.114 1.7695 7.95139e-016 -6.28657e-015 5.96354e-016 4.1246 0.487 4.1451 -3.37599e-006 1.40561e-006 -3.93001e-006 3.4052 -1.454 2.7682 1.59028e-015 -4.53478e-015 -0 1.4531 -1.795 1.2713 -4.65896e-006 -1.03039e-007 1.25182e-006 5.6954 0.21 2.1184 -3.37599e-006 1.40561e-006 -3.93001e-006 3.9766 -1.54 2.3863 1.59028e-015 -4.53478e-015 -0 1.4042 -1.926 1.125 -4.65896e-006 -1.03039e-007 1.25182e-006 2.0956 0.66 -0.3894 7.95139e-016 -6.28657e-015 5.96354e-016 5.0395 -0.09 2.4971 -3.37599e-006 1.40561e-006 -3.93001e-006 3.7921 -1.552 1.4806 1.59028e-015 -4.53478e-015 -0 1.4655 -1.808 0.9609 -4.65896e-006 -1.03039e-007 1.25182e-006 4.9141 -1.269 0.3591 -3.37599e-006 1.40561e-006 -3.93001e-006 3.1477 -1.685 0.8462 1.59028e-015 -4.53478e-015 -0 0.8055 -1.585 0.7955 -4.65896e-006 -1.03039e-007 1.25182e-006 -1.7069 20.075 5.0056 63.5863 33.7437 -6.37616 -13.6458 -0.047 -4.849 15.9147 56.7788 12.8932 -28.3255 -0.9759 2.2888 -14.9954 -2.94282 2.52406 -22.1583 -0.53 10.8316 -38.9349 -22.9461 -2.1979 -0.786 0.112 2.5817 3.97569e-016 7.60351e-015 -1.59028e-015 -0.3601 -0.878 4.2331 2.31462e-006 2.77874e-007 -6.25057e-007 -1.8127 -1.216 2.2227 -1.49089e-016 -4.79568e-015 -1.59028e-015 -0.9571 1.114 1.7695 1.19271e-015 -2.16178e-015 -0 -4.1246 0.487 4.1451 -3.47873e-016 4.32978e-015 1.27222e-014 -3.4052 -1.454 2.7682 2.31462e-006 2.77874e-007 -6.25057e-007 -1.4531 -1.795 1.2713 -1.66482e-015 7.77745e-015 1.59028e-015 -5.6954 0.21 2.1184 -3.47873e-016 4.32978e-015 1.27222e-014 -3.9766 -1.54 2.3863 2.31462e-006 2.77874e-007 -6.25057e-007 -1.4042 -1.926 1.125 -1.66482e-015 7.77745e-015 1.59028e-015 -2.0956 0.66 -0.3894 1.19271e-015 -2.16178e-015 -0 -5.0395 -0.09 2.4971 -3.47873e-016 4.32978e-015 1.27222e-014 -3.7921 -1.552 1.4806 2.31462e-006 2.77874e-007 -6.25057e-007 -1.4655 -1.808 0.9609 -1.66482e-015 7.77745e-015 1.59028e-015 -4.9141 -1.269 0.3592 -3.47873e-016 4.32978e-015 1.27222e-014 -3.1477 -1.685 0.8462 2.31462e-006 2.77874e-007 -6.25057e-007 -0.8055 -1.585 0.7955 -1.66482e-015 7.77745e-015 1.59028e-015 8.367 -8.2066 0.5982 170.487 -75.6252 171.102 2.1923 -43.463 -0.4932 -5.6912 0.843502 0.499261 0.7333 -45.8593 -2.6451 7.57453 -1.10356 5.05984 -8.367 -8.2066 0.5982 -172.211 -76.3668 -170.95 -2.1923 -43.463 -0.4931 4.74297 -0.501626 -0.476819 -0.7333 -45.8593 -2.6451 -7.20569 -0.344255 -6.80955 
42.3108 75.4634 65.2324 180 75.004 -180 0 -1.186 -1.5018 -0.366692 5.85726 -0.887161 -7.10543e-015 9.964 0.2134 -0.64673 11.7194 -1.75024 1.42109e-014 13.134 -3.2573 -0.64673 11.7194 -1.75024 7.10543e-015 20.686 -1.6905 -1.19456e-006 0.366307 -3.97738e-006 -7.10543e-015 7.238 -0.1237 2.31234e-007 0.139014 2.62543e-007 1.7069 20.075 5.0056 -59.8453 35.3767 5.19034 13.6458 -0.047 -4.849 -15.5675 56.7046 -14.071 28.3255 -0.9759 2.2888 14.6167 -4.54341 -15.1593 22.1583 -0.53 10.8316 38.4203 -22.0893 2.69867 0.786 0.112 2.5817 -4.71278e-006 2.22324e-006 1.35108e-006 0.3601 -0.878 4.2331 -2.38302e-006 2.2765e-006 7.26108e-007 1.8127 -1.216 2.2227 -2.32976e-006 -5.32576e-008 6.2497e-007 0.9571 1.114 1.7695 -3.75872e-031 1.08338e-014 1.98785e-015 4.1246 0.487 4.1451 -4.71278e-006 2.22324e-006 1.35108e-006 3.4052 -1.454 2.7682 -2.38302e-006 2.2765e-006 7.26108e-007 1.4531 -1.795 1.2713 -2.32976e-006 -5.32576e-008 6.2497e-007 5.6954 0.21 2.1184 -4.71278e-006 2.22324e-006 1.35108e-006 3.9766 -1.54 2.3863 -2.38302e-006 2.2765e-006 7.26108e-007 1.4042 -1.926 1.125 -2.32976e-006 -5.32576e-008 6.2497e-007 2.0956 0.66 -0.3894 -3.75872e-031 1.08338e-014 1.98785e-015 5.0395 -0.09 2.4971 -4.71278e-006 2.22324e-006 1.35108e-006 3.7921 -1.552 1.4806 -2.38302e-006 2.2765e-006 7.26108e-007 1.4655 -1.808 0.9609 -2.32976e-006 -5.32576e-008 6.2497e-007 4.9141 -1.269 0.3591 -4.71278e-006 2.22324e-006 1.35108e-006 3.1477 -1.685 0.8462 -2.38302e-006 2.2765e-006 7.26108e-007 0.8055 -1.585 0.7955 -2.32976e-006 -5.32576e-008 6.2497e-007 -1.7069 20.075 5.0056 63.1685 34.8236 -7.5179 -13.6458 -0.047 -4.849 16.5443 56.9609 12.6319 -28.3255 -0.9759 2.2888 -15.7814 -3.43883 4.48514 -22.1583 -0.53 10.8316 -38.2775 -21.9195 -3.39495 -0.786 0.112 2.5817 -2.85753e-016 -7.60973e-016 -1.59028e-015 -0.3601 -0.878 4.2331 -1.09332e-015 -9.1472e-016 -0 -1.8127 -1.216 2.2227 -2.31615e-006 -2.75168e-007 6.20977e-007 -0.9571 1.114 1.7695 5.09386e-016 -5.01621e-016 -1.59028e-015 -4.1246 0.487 4.1451 -1.05604e-015 2.52829e-015 -1.59028e-015 -3.4052 -1.454 2.7682 -1.85739e-015 2.36833e-015 1.59028e-015 -1.4531 -1.795 1.2713 -2.31615e-006 -2.75168e-007 6.20977e-007 -5.6954 0.21 2.1184 -1.05604e-015 2.52829e-015 -1.59028e-015 -3.9766 -1.54 2.3863 -1.85739e-015 2.36833e-015 1.59028e-015 -1.4042 -1.926 1.125 -2.31615e-006 -2.75168e-007 6.20977e-007 -2.0956 0.66 -0.3894 5.09386e-016 -5.01621e-016 -1.59028e-015 -5.0395 -0.09 2.4971 -1.05604e-015 2.52829e-015 -1.59028e-015 -3.7921 -1.552 1.4806 -1.85739e-015 2.36833e-015 1.59028e-015 -1.4655 -1.808 0.9609 -2.31615e-006 -2.75168e-007 6.20977e-007 -4.9141 -1.269 0.3592 -1.05604e-015 2.52829e-015 -1.59028e-015 -3.1477 -1.685 0.8462 -1.85739e-015 2.36833e-015 1.59028e-015 -0.8055 -1.585 0.7955 -2.31615e-006 -2.75168e-007 6.20977e-007 8.367 -8.2066 0.5982 170.487 -75.6252 171.102 2.1923 -43.463 -0.4932 -5.6912 0.843502 0.499261 0.7333 -45.8593 -2.6451 7.57453 -1.10356 5.05984 -8.367 -8.2066 0.5982 -172.211 -76.3668 -170.95 -2.1923 -43.463 -0.4931 4.74297 -0.501625 -0.47682 -0.7333 -45.8593 -2.6451 -7.20569 -0.344256 -6.80955 
42.3108 75.4634 65.1201 180 75.004 -180 0 -1.186 -1.5018 -0.359944 5.43714 -0.887295 0 9.964 0.2134 -0.639171 10.8791 -1.75201 -7.10543e-015 13.134 -3.2573 -0.639171 10.8791 -1.75201 7.10543e-015 20.686 -1.6905 -2.32886e-006 0.451076 -5.25731e-006 0 7.238 -0.1237 -2.78838e-007 0.171377 1.24128e-006 1.7069 20.075 5.0056 -59.8609 36.3438 6.2515 13.6458 -0.047 -4.849 -16.1208 56.8742 -13.7846 28.3255 -0.9759 2.2888 15.0579 -4.93676 -16.7853 22.1583 -0.53 10.8316 37.8668 -21.4939 3.8471 0.786 0.112 2.5817 -4.29104e-007 1.15975e-006 5.51266e-006 0.3601 -0.878 4.2331 -1.35829e-006 1.59122e-006 -9.58234e-006 1.8127 -1.216 2.2227 -7.95139e-016 -5.71506e-015 3.97569e-016 0.9571 1.114 1.7695 -3.90527e-032 3.75206e-015 5.96354e-016 4.1246 0.487 4.1451 -4.29104e-007 1.15975e-006 5.51266e-006 3.4052 -1.454 2.7682 -1.35829e-006 1.59122e-006 -9.58234e-006 1.4531 -1.795 1.2713 -7.95139e-016 -5.59082e-015 -5.96354e-016 5.6954 0.21 2.1184 -4.29104e-007 1.15975e-006 5.51266e-006 3.9766 -1.54 2.3863 -1.35829e-006 1.59122e-006 -9.58234e-006 1.4042 -1.926 1.125 -7.95139e-016 -5.59082e-015 -5.96354e-016 2.0956 0.66 -0.3894 -3.90527e-032 3.75206e-015 5.96354e-016 5.0395 -0.09 2.4971 -4.29104e-007 1.15975e-006 5.51266e-006 3.7921 -1.552 1.4806 -1.35829e-006 1.59122e-006 -9.58234e-006 1.4655 -1.808 0.9609 -7.95139e-016 -5.59082e-015 -5.96354e-016 4.9141 -1.269 0.3591 -4.29104e-007 1.15975e-006 5.51266e-006 3.1477 -1.685 0.8462 -1.35829e-006 1.59122e-006 -9.58234e-006 0.8055 -1.585 0.7955 -7.95139e-016 -5.59082e-015 -5.96354e-016 -1.7069 20.075 5.0056 62.7709 35.9126 -8.66781 -13.6458 -0.047 -4.849 17.1787 57.1414 12.3657 -28.3255 -0.9759 2.2888 -16.5551 -3.96469 6.45234 -22.1583 -0.53 10.8316 -37.5989 -20.9014 -4.60149 -0.786 0.112 2.5817 1.02232e-006 1.29526e-006 -3.44037e-007 -0.3601 -0.878 4.2331 -1.21756e-015 1.05915e-015 3.18055e-015 -1.8127 -1.216 2.2227 2.31758e-006 2.72934e-007 -6.17016e-007 -0.9571 1.114 1.7695 6.83322e-016 3.22404e-015 1.59028e-015 -4.1246 0.487 4.1451 1.02232e-006 1.29526e-006 -3.44037e-007 -3.4052 -1.454 2.7682 -4.84538e-016 -1.66172e-015 1.59028e-015 -1.4531 -1.795 1.2713 2.31758e-006 2.72934e-007 -6.17016e-007 -5.6954 0.21 2.1184 1.02232e-006 1.29526e-006 -3.44037e-007 -3.9766 -1.54 2.3863 -4.84538e-016 -1.66172e-015 1.59028e-015 -1.4042 -1.926 1.125 2.31758e-006 2.72934e-007 -6.17016e-007 -2.0956 0.66 -0.3894 6.83322e-016 3.22404e-015 1.59028e-015 -5.0395 -0.09 2.4971 1.02232e-006 1.29526e-006 -3.44037e-007 -3.7921 -1.552 1.4806 -4.84538e-016 -1.66172e-015 1.59028e-015 -1.4655 -1.808 0.9609 2.31758e-006 2.72934e-007 -6.17016e-007 -4.9141 -1.269 0.3592 1.02232e-006 1.29526e-006 -3.44037e-007 -3.1477 -1.685 0.8462 -4.84538e-016 -1.66172e-015 1.59028e-015 -0.8055 -1.585 0.7955 2.31758e-006 2.72934e-007 -6.17016e-007 8.367 -8.2066 0.5982 170.487 -75.6254 171.102 2.1923 -43.463 -0.4932 -5.6912 0.843067 0.499228 0.7333 -45.8593 -2.6451 7.57454 -1.10334 5.05983 -8.367 -8.2066 0.5982 -172.211 -76.3668 -170.95 -2.1923 -43.463 -0.4931 4.74298 -0.501626 -0.476819 -0.7333 -45.8593 -2.6451 -7.20569 -0.344248 -6.80954 
